#!OML:ASF H:\BreakDance\Project 1\Capture day 1\Session 1\Male.ASF
:FULLY-SPECIFIED
:DEGREES
557
root 27.1291 9.53455 -8.57392 -214.854 250.8 -78.8346
lowerback 32.0375 5.45059 -13.467
upperback 7.7209 1.58384 -3.46632
thorax -7.85569 0.687608 2.78504
lowerneck 1.16657 -12.3629 -2.32773
upperneck -18.8976 -13.9661 22.5511
head -3.8719 -8.65032 7.79743
rclavicle 1.27222e-014 4.6118e-014
rhumerus 25.3814 -21.7911 -85.9674
rradius 63.3646
rwrist -21.1823
rhand -61.766 470.9
rfingers 7.12502
rthumb -33.8314 137.721
lclavicle 1.27222e-014 4.6118e-014
lhumerus 68.5786 -41.32 39.1544
lradius 40.5474
lwrist 42.7716
lhand -53.6072 -626.334
lfingers 7.12502
lthumb -26.0473 -65.4312
rfemur -44.132 6.15895 12.0257
rtibia 78.9705
rfoot -9.16569 5.61762
rtoes 49.5872
lfemur -93.8912 43.813 -36.4345
ltibia 122.351
lfoot -24.4158 -40.7842
ltoes -27.705
558
root 27.2916 9.67623 -8.33052 -220.429 252.695 -72.6276
lowerback 30.8298 5.05425 -11.3301
upperback 8.0406 1.92156 -3.85576
thorax -7.19849 0.792113 1.28477
lowerneck 1.05304 -12.1087 -2.33308
upperneck -19.4116 -13.5936 22.4511
head -4.06311 -8.50793 7.81017
rclavicle -1.11319e-013 8.74653e-015
rhumerus 27.8846 -20.8116 -85.1637
rradius 62.3399
rwrist -20.7484
rhand -61.8649 469.552
rfingers 7.12502
rthumb -33.9254 136.352
lclavicle -1.11319e-013 8.74653e-015
lhumerus 68.9022 -40.1485 39.099
lradius 40.5193
lwrist 43.8755
lhand -53.7272 -626.214
lfingers 7.12502
lthumb -26.1622 -65.5685
rfemur -45.7443 5.57581 11.1094
rtibia 79.3982
rfoot -9.95796 5.83345
rtoes 47.9747
lfemur -98.6564 41.6683 -39.309
ltibia 124.653
lfoot -24.2311 -40.4976
ltoes -25.8684
559
root 27.4837 9.81144 -8.06179 -228.532 254.887 -62.906
lowerback 28.2226 4.77304 -9.10576
upperback 8.43686 2.56201 -4.33586
thorax -6.24833 1.04831 -0.440745
lowerneck 0.931115 -11.8406 -2.26173
upperneck -19.927 -13.2153 22.24
head -4.27127 -8.35944 7.77681
rclavicle 4.13472e-014 -9.93923e-015
rhumerus 30.5075 -19.8038 -84.2925
rradius 61.0166
rwrist -20.313
rhand -61.827 468.413
rfingers 7.12502
rthumb -33.8894 135.222
lclavicle 4.13472e-014 -9.93923e-015
lhumerus 69.1851 -39.0131 39.041
lradius 40.4671
lwrist 45.1081
lhand -53.8262 -626.285
lfingers 7.12502
lthumb -26.2569 -65.5122
rfemur -48.9291 5.27188 10.155
rtibia 80.1035
rfoot -10.7812 5.89894
rtoes 45.6646
lfemur -105.002 38.9112 -42.7614
ltibia 126.954
lfoot -24.0425 -39.2544
ltoes -24.2809
560
root 27.7012 9.93533 -7.77163 -239.762 256.954 -48.9963
lowerback 24.8397 4.68102 -6.85796
upperback 8.13231 3.41991 -4.74093
thorax -4.86933 1.4657 -2.23177
lowerneck 0.807475 -11.5749 -2.16261
upperneck -20.4547 -12.8427 22.0153
head -4.48577 -8.21641 7.73514
rclavicle -1.11319e-013 1.59028e-014
rhumerus 33.2641 -18.7849 -83.3858
rradius 59.3573
rwrist -19.8593
rhand -61.6848 467.224
rfingers 7.12502
rthumb -33.7542 134.062
lclavicle -1.11319e-013 1.59028e-014
lhumerus 69.323 -37.9271 39.1124
lradius 40.4152
lwrist 46.2965
lhand -53.9868 -626.348
lfingers 7.12502
lthumb -26.4107 -65.4717
rfemur -53.696 5.01766 9.42119
rtibia 80.9907
rfoot -11.5741 5.73825
rtoes 42.6959
lfemur -112.699 34.8465 -45.9314
ltibia 129.113
lfoot -23.7315 -36.7465
ltoes -23.4256
561
root 27.9284 10.047 -7.47039 -253.428 258.327 -31.8453
lowerback 20.8585 4.66735 -4.4402
upperback 7.54947 4.34492 -5.11138
thorax -3.3333 1.96862 -3.97016
lowerneck 0.616857 -11.3326 -2.03414
upperneck -20.9198 -12.5111 21.8157
head -4.66449 -8.09182 7.68523
rclavicle -6.04305e-014 -3.57812e-015
rhumerus 36.1428 -17.7507 -82.4961
rradius 57.3587
rwrist -19.3274
rhand -61.4587 465.527
rfingers 7.12502
rthumb -33.5394 132.412
lclavicle -6.04305e-014 -3.57812e-015
lhumerus 69.1535 -36.878 39.5486
lradius 40.3542
lwrist 47.3319
lhand -54.086 -626.429
lfingers 7.12502
lthumb -26.5057 -65.4047
rfemur -59.4745 4.48718 9.12711
rtibia 81.7782
rfoot -12.2241 5.1652
rtoes 38.9459
lfemur -120.784 29.1641 -47.6092
ltibia 130.809
lfoot -23.1675 -32.9036
ltoes -23.6504
562
root 28.1349 10.1529 -7.17114 -266.698 258.463 -15.1699
lowerback 17.306 4.70697 -2.19699
upperback 6.88947 5.10358 -5.43049
thorax -1.96378 2.4197 -5.46056
lowerneck 0.348931 -11.1184 -1.85348
upperneck -21.3022 -12.2287 21.6363
head -4.8008 -7.98978 7.62
rclavicle -4.13472e-014 3.49861e-014
rhumerus 39.1226 -16.6738 -81.6412
rradius 55.0517
rwrist -18.6564
rhand -61.1482 463.145
rfingers 7.12502
rthumb -33.2443 130.094
lclavicle -4.13472e-014 3.49861e-014
lhumerus 68.6675 -35.8234 40.4596
lradius 40.2314
lwrist 48.1159
lhand -54.1381 -626.479
lfingers 7.12502
lthumb -26.5555 -65.3621
rfemur -64.8366 3.46373 9.07558
rtibia 82.1301
rfoot -12.8721 4.02292
rtoes 34.1312
lfemur -127.631 22.7824 -47.4314
ltibia 131.612
lfoot -22.4772 -28.4904
ltoes -24.3971
